<svg width="20" height="20" viewBox="0 0 20 20" fill="none" xmlns="http://www.w3.org/2000/svg">
<path d="M9.11626 1.60944C4.984 1.60944 1.61789 4.97554 1.61789 9.10782C1.61789 13.2401 4.984 16.6127 9.11626 16.6127C10.8813 16.6127 12.5045 15.9942 13.7875 14.9672L16.9109 18.0889C17.0685 18.24 17.279 18.3234 17.4973 18.3211C17.7157 18.3189 17.9244 18.2313 18.0789 18.077C18.2334 17.9227 18.3214 17.7141 18.3239 17.4958C18.3264 17.2775 18.2434 17.0668 18.0925 16.909L14.9691 13.7856C15.997 12.5007 16.6163 10.8749 16.6163 9.10782C16.6163 4.97554 13.2485 1.60944 9.11626 1.60944ZM9.11626 3.27613C12.3478 3.27613 14.948 5.87629 14.948 9.10782C14.948 12.3393 12.3478 14.946 9.11626 14.946C5.88473 14.946 3.28456 12.3393 3.28456 9.10782C3.28456 5.87629 5.88473 3.27613 9.11626 3.27613Z" fill="#9A999E"/>
</svg>
